<svg width="480" height="95" viewBox="0 0 480 95" fill="none" xmlns="http://www.w3.org/2000/svg">
<path d="M20.384 75.96C16.608 75.96 13.184 75.192 10.112 73.656C7.04 72.056 4.608 69.688 2.816 66.552C1.024 63.416 0.128 59.544 0.128 54.936C0.128 50.392 1.056 46.488 2.912 43.224C4.832 39.96 7.328 37.464 10.4 35.736C13.536 33.944 16.928 33.048 20.576 33.048C24.416 33.048 27.552 33.88 29.984 35.544C32.48 37.144 34.432 39.032 35.84 41.208L35.168 42.744L36.128 34.776H45.248V75H35.36V64.92L36.416 67.32C36.16 67.832 35.616 68.568 34.784 69.528C33.952 70.424 32.832 71.384 31.424 72.408C30.08 73.432 28.48 74.296 26.624 75C24.832 75.64 22.752 75.96 20.384 75.96ZM23.072 67.896C25.184 67.896 27.072 67.512 28.736 66.744C30.4 65.976 31.808 64.888 32.96 63.48C34.112 62.072 34.912 60.408 35.36 58.488V50.136C34.848 48.344 33.984 46.808 32.768 45.528C31.552 44.184 30.08 43.128 28.352 42.36C26.688 41.592 24.832 41.208 22.784 41.208C20.48 41.208 18.368 41.784 16.448 42.936C14.528 44.024 12.992 45.56 11.84 47.544C10.688 49.528 10.112 51.832 10.112 54.456C10.112 56.952 10.688 59.224 11.84 61.272C13.056 63.32 14.656 64.952 16.64 66.168C18.624 67.32 20.768 67.896 23.072 67.896ZM80.0765 94.968C76.9405 94.968 74.2205 94.616 71.9165 93.912C69.6125 93.208 67.5325 92.216 65.6765 90.936C63.8845 89.72 62.1565 88.408 60.4925 87L66.3485 80.184C68.3325 82.04 70.3805 83.512 72.4925 84.6C74.6045 85.752 77.0685 86.328 79.8845 86.328C82.7005 86.328 85.1005 85.848 87.0845 84.888C89.1325 83.992 90.7005 82.712 91.7885 81.048C92.8765 79.384 93.4205 77.4 93.4205 75.096L93.5165 64.632L94.1885 66.552C93.1005 69.176 91.0845 71.416 88.1405 73.272C85.1965 75.064 81.5805 75.96 77.2925 75.96C73.6445 75.96 70.2525 75.032 67.1165 73.176C64.0445 71.32 61.5805 68.792 59.7245 65.592C57.8685 62.392 56.9405 58.776 56.9405 54.744C56.9405 50.52 57.9005 46.808 59.8205 43.608C61.8045 40.344 64.3965 37.784 67.5965 35.928C70.7965 34.008 74.2205 33.048 77.8685 33.048C81.4525 33.048 84.6525 33.752 87.4685 35.16C90.2845 36.504 92.3965 38.2 93.8045 40.248L93.2285 41.88L94.2845 34.776H103.405V75.192C103.405 78.904 102.413 82.232 100.429 85.176C98.5085 88.184 95.8205 90.552 92.3645 92.28C88.9085 94.072 84.8125 94.968 80.0765 94.968ZM66.9245 54.456C66.9245 56.952 67.5005 59.224 68.6525 61.272C69.8045 63.32 71.3725 64.952 73.3565 66.168C75.4045 67.32 77.6765 67.896 80.1725 67.896C82.4125 67.896 84.4285 67.512 86.2205 66.744C88.0125 65.912 89.5165 64.824 90.7325 63.48C92.0125 62.072 92.9405 60.44 93.5165 58.584V50.232C92.9405 48.376 92.0125 46.808 90.7325 45.528C89.4525 44.184 87.9165 43.128 86.1245 42.36C84.3325 41.592 82.3485 41.208 80.1725 41.208C77.6765 41.208 75.4045 41.784 73.3565 42.936C71.3725 44.024 69.8045 45.56 68.6525 47.544C67.5005 49.528 66.9245 51.832 66.9245 54.456ZM137.434 75.96C132.762 75.96 128.762 75.064 125.434 73.272C122.106 71.416 119.546 68.888 117.754 65.688C115.962 62.424 115.066 58.712 115.066 54.552C115.066 50.584 116.058 47 118.042 43.8C120.09 40.536 122.81 37.944 126.202 36.024C129.658 34.104 133.466 33.144 137.626 33.144C143.002 33.144 147.45 34.712 150.97 37.848C154.554 40.984 156.954 45.368 158.17 51L125.434 62.328L123.13 56.568L149.338 47.16L147.322 48.408C146.554 46.424 145.338 44.696 143.674 43.224C142.01 41.688 139.738 40.92 136.858 40.92C134.554 40.92 132.474 41.496 130.618 42.648C128.826 43.736 127.386 45.272 126.298 47.256C125.274 49.176 124.762 51.448 124.762 54.072C124.762 56.76 125.306 59.128 126.394 61.176C127.546 63.16 129.082 64.728 131.002 65.88C132.986 67.032 135.194 67.608 137.626 67.608C139.354 67.608 140.986 67.288 142.522 66.648C144.122 66.008 145.626 65.208 147.034 64.248L151.546 71.544C149.434 72.888 147.13 73.976 144.634 74.808C142.202 75.576 139.802 75.96 137.434 75.96ZM177.979 34.776L178.843 43.992L178.459 42.744C179.803 39.864 181.883 37.56 184.699 35.832C187.515 34.04 190.843 33.144 194.683 33.144C198.459 33.144 201.563 34.264 203.995 36.504C206.491 38.744 207.771 41.656 207.835 45.24V75H197.947V48.696C197.883 46.648 197.275 44.984 196.123 43.704C194.971 42.36 193.179 41.656 190.747 41.592C188.571 41.592 186.587 42.264 184.795 43.608C183.003 44.888 181.595 46.648 180.571 48.888C179.547 51.128 179.035 53.72 179.035 56.664V75H169.147V34.776H177.979ZM239.375 75.96C235.599 75.96 232.207 75.096 229.199 73.368C226.191 71.576 223.823 69.048 222.095 65.784C220.367 62.52 219.503 58.712 219.503 54.36C219.503 49.88 220.431 46.072 222.287 42.936C224.143 39.736 226.639 37.304 229.775 35.64C232.975 33.912 236.559 33.048 240.527 33.048C243.599 33.048 246.511 33.688 249.263 34.968C252.079 36.184 254.255 37.912 255.791 40.152L255.503 43.512V0.407999H265.295V75H255.407V65.496L256.463 68.088C254.479 70.328 252.047 72.216 249.167 73.752C246.287 75.224 243.023 75.96 239.375 75.96ZM242.447 67.608C244.687 67.608 246.671 67.224 248.399 66.456C250.127 65.688 251.599 64.6 252.815 63.192C254.031 61.72 254.895 60.024 255.407 58.104V50.04C254.959 48.248 254.095 46.68 252.815 45.336C251.599 43.928 250.095 42.84 248.303 42.072C246.511 41.304 244.559 40.92 242.447 40.92C240.079 40.92 237.903 41.496 235.919 42.648C233.999 43.736 232.431 45.272 231.215 47.256C230.063 49.24 229.487 51.544 229.487 54.168C229.487 56.664 230.063 58.936 231.215 60.984C232.431 63.032 234.031 64.664 236.015 65.88C237.999 67.032 240.143 67.608 242.447 67.608ZM299.34 75.96C294.668 75.96 290.668 75.064 287.34 73.272C284.012 71.416 281.452 68.888 279.66 65.688C277.868 62.424 276.972 58.712 276.972 54.552C276.972 50.584 277.964 47 279.948 43.8C281.996 40.536 284.716 37.944 288.108 36.024C291.564 34.104 295.372 33.144 299.532 33.144C304.908 33.144 309.356 34.712 312.876 37.848C316.46 40.984 318.86 45.368 320.076 51L287.34 62.328L285.036 56.568L311.244 47.16L309.228 48.408C308.46 46.424 307.244 44.696 305.58 43.224C303.916 41.688 301.644 40.92 298.764 40.92C296.46 40.92 294.38 41.496 292.524 42.648C290.732 43.736 289.292 45.272 288.204 47.256C287.18 49.176 286.668 51.448 286.668 54.072C286.668 56.76 287.212 59.128 288.3 61.176C289.452 63.16 290.988 64.728 292.908 65.88C294.892 67.032 297.1 67.608 299.532 67.608C301.26 67.608 302.892 67.288 304.428 66.648C306.028 66.008 307.532 65.208 308.94 64.248L313.452 71.544C311.34 72.888 309.036 73.976 306.54 74.808C304.108 75.576 301.708 75.96 299.34 75.96ZM328.653 49.752H346.509V58.392H328.653V49.752ZM369.041 34.776L369.905 43.416L369.521 42.744C371.057 39.736 373.169 37.4 375.857 35.736C378.545 34.008 381.649 33.144 385.169 33.144C387.345 33.144 389.297 33.496 391.025 34.2C392.817 34.904 394.289 35.896 395.441 37.176C396.593 38.456 397.329 40.056 397.649 41.976L397.169 42.264C398.769 39.448 400.881 37.24 403.505 35.64C406.193 33.976 409.041 33.144 412.049 33.144C415.953 33.144 419.057 34.264 421.361 36.504C423.729 38.744 424.945 41.624 425.009 45.144V75H415.217V48.888C415.153 46.904 414.673 45.24 413.777 43.896C412.945 42.552 411.441 41.816 409.265 41.688C406.961 41.688 404.913 42.392 403.121 43.8C401.393 45.208 400.049 47.032 399.089 49.272C398.129 51.512 397.617 53.912 397.553 56.472V75H387.665V48.888C387.601 46.904 387.121 45.24 386.225 43.896C385.329 42.552 383.761 41.816 381.521 41.688C379.217 41.688 377.201 42.392 375.473 43.8C373.745 45.208 372.401 47.064 371.441 49.368C370.545 51.608 370.097 53.976 370.097 56.472V75H360.209V34.776H369.041ZM459.09 75.96C454.418 75.96 450.418 75.064 447.09 73.272C443.762 71.416 441.202 68.888 439.41 65.688C437.618 62.424 436.722 58.712 436.722 54.552C436.722 50.584 437.714 47 439.698 43.8C441.746 40.536 444.466 37.944 447.858 36.024C451.314 34.104 455.122 33.144 459.282 33.144C464.658 33.144 469.106 34.712 472.626 37.848C476.21 40.984 478.61 45.368 479.826 51L447.09 62.328L444.786 56.568L470.994 47.16L468.978 48.408C468.21 46.424 466.994 44.696 465.33 43.224C463.666 41.688 461.394 40.92 458.514 40.92C456.21 40.92 454.13 41.496 452.274 42.648C450.482 43.736 449.042 45.272 447.954 47.256C446.93 49.176 446.418 51.448 446.418 54.072C446.418 56.76 446.962 59.128 448.05 61.176C449.202 63.16 450.738 64.728 452.658 65.88C454.642 67.032 456.85 67.608 459.282 67.608C461.01 67.608 462.642 67.288 464.178 66.648C465.778 66.008 467.282 65.208 468.69 64.248L473.202 71.544C471.09 72.888 468.786 73.976 466.29 74.808C463.858 75.576 461.458 75.96 459.09 75.96Z" fill="white"/>
</svg>
