<svg width="176" height="36" viewBox="0 0 176 36" fill="none" xmlns="http://www.w3.org/2000/svg">
<path d="M7.89 28.35C6.51333 28.35 5.265 28.07 4.145 27.51C3.025 26.9267 2.13833 26.0633 1.485 24.92C0.831667 23.7767 0.505 22.365 0.505 20.685C0.505 19.0283 0.843333 17.605 1.52 16.415C2.22 15.225 3.13 14.315 4.25 13.685C5.39333 13.0317 6.63 12.705 7.96 12.705C9.36 12.705 10.5033 13.0083 11.39 13.615C12.3 14.1983 13.0117 14.8867 13.525 15.68L13.28 16.24L13.63 13.335H16.955V28H13.35V24.325L13.735 25.2C13.6417 25.3867 13.4433 25.655 13.14 26.005C12.8367 26.3317 12.4283 26.6817 11.915 27.055C11.425 27.4283 10.8417 27.7433 10.165 28C9.51167 28.2333 8.75333 28.35 7.89 28.35ZM8.87 25.41C9.64 25.41 10.3283 25.27 10.935 24.99C11.5417 24.71 12.055 24.3133 12.475 23.8C12.895 23.2867 13.1867 22.68 13.35 21.98V18.935C13.1633 18.2817 12.8483 17.7217 12.405 17.255C11.9617 16.765 11.425 16.38 10.795 16.1C10.1883 15.82 9.51167 15.68 8.765 15.68C7.925 15.68 7.155 15.89 6.455 16.31C5.755 16.7067 5.195 17.2667 4.775 17.99C4.355 18.7133 4.145 19.5533 4.145 20.51C4.145 21.42 4.355 22.2483 4.775 22.995C5.21833 23.7417 5.80167 24.3367 6.525 24.78C7.24833 25.2 8.03 25.41 8.87 25.41ZM29.6529 35.28C28.5096 35.28 27.5179 35.1517 26.6779 34.895C25.8379 34.6383 25.0796 34.2767 24.4029 33.81C23.7496 33.3667 23.1196 32.8883 22.5129 32.375L24.6479 29.89C25.3712 30.5667 26.1179 31.1033 26.8879 31.5C27.6579 31.92 28.5562 32.13 29.5829 32.13C30.6096 32.13 31.4846 31.955 32.2079 31.605C32.9546 31.2783 33.5262 30.8117 33.9229 30.205C34.3196 29.5983 34.5179 28.875 34.5179 28.035L34.5529 24.22L34.7979 24.92C34.4012 25.8767 33.6662 26.6933 32.5929 27.37C31.5196 28.0233 30.2012 28.35 28.6379 28.35C27.3079 28.35 26.0712 28.0117 24.9279 27.335C23.8079 26.6583 22.9096 25.7367 22.2329 24.57C21.5562 23.4033 21.2179 22.085 21.2179 20.615C21.2179 19.075 21.5679 17.7217 22.2679 16.555C22.9912 15.365 23.9362 14.4317 25.1029 13.755C26.2696 13.055 27.5179 12.705 28.8479 12.705C30.1546 12.705 31.3212 12.9617 32.3479 13.475C33.3746 13.965 34.1446 14.5833 34.6579 15.33L34.4479 15.925L34.8329 13.335H38.1579V28.07C38.1579 29.4233 37.7962 30.6367 37.0729 31.71C36.3729 32.8067 35.3929 33.67 34.1329 34.3C32.8729 34.9533 31.3796 35.28 29.6529 35.28ZM24.8579 20.51C24.8579 21.42 25.0679 22.2483 25.4879 22.995C25.9079 23.7417 26.4796 24.3367 27.2029 24.78C27.9496 25.2 28.7779 25.41 29.6879 25.41C30.5046 25.41 31.2396 25.27 31.8929 24.99C32.5462 24.6867 33.0946 24.29 33.5379 23.8C34.0046 23.2867 34.3429 22.6917 34.5529 22.015V18.97C34.3429 18.2933 34.0046 17.7217 33.5379 17.255C33.0712 16.765 32.5112 16.38 31.8579 16.1C31.2046 15.82 30.4812 15.68 29.6879 15.68C28.7779 15.68 27.9496 15.89 27.2029 16.31C26.4796 16.7067 25.9079 17.2667 25.4879 17.99C25.0679 18.7133 24.8579 19.5533 24.8579 20.51ZM135.005 13.335L135.32 16.485L135.18 16.24C135.74 15.1433 136.51 14.2917 137.49 13.685C138.47 13.055 139.601 12.74 140.885 12.74C141.678 12.74 142.39 12.8683 143.02 13.125C143.673 13.3817 144.21 13.7433 144.63 14.21C145.05 14.6767 145.318 15.26 145.435 15.96L145.26 16.065C145.843 15.0383 146.613 14.2333 147.57 13.65C148.55 13.0433 149.588 12.74 150.685 12.74C152.108 12.74 153.24 13.1483 154.08 13.965C154.943 14.7817 155.386 15.8317 155.41 17.115V28H151.84V18.48C151.816 17.7567 151.641 17.15 151.315 16.66C151.011 16.17 150.463 15.9017 149.67 15.855C148.83 15.855 148.083 16.1117 147.43 16.625C146.8 17.1383 146.31 17.8033 145.96 18.62C145.61 19.4367 145.423 20.3117 145.4 21.245V28H141.795V18.48C141.771 17.7567 141.596 17.15 141.27 16.66C140.943 16.17 140.371 15.9017 139.555 15.855C138.715 15.855 137.98 16.1117 137.35 16.625C136.72 17.1383 136.23 17.815 135.88 18.655C135.553 19.4717 135.39 20.335 135.39 21.245V28H131.785V13.335H135.005ZM167.835 28.35C166.131 28.35 164.673 28.0233 163.46 27.37C162.246 26.6933 161.313 25.7717 160.66 24.605C160.006 23.415 159.68 22.0617 159.68 20.545C159.68 19.0983 160.041 17.7917 160.765 16.625C161.511 15.435 162.503 14.49 163.74 13.79C165 13.09 166.388 12.74 167.905 12.74C169.865 12.74 171.486 13.3117 172.77 14.455C174.076 15.5983 174.951 17.1967 175.395 19.25L163.46 23.38L162.62 21.28L172.175 17.85L171.44 18.305C171.16 17.5817 170.716 16.9517 170.11 16.415C169.503 15.855 168.675 15.575 167.625 15.575C166.785 15.575 166.026 15.785 165.35 16.205C164.696 16.6017 164.171 17.1617 163.775 17.885C163.401 18.585 163.215 19.4133 163.215 20.37C163.215 21.35 163.413 22.2133 163.81 22.96C164.23 23.6833 164.79 24.255 165.49 24.675C166.213 25.095 167.018 25.305 167.905 25.305C168.535 25.305 169.13 25.1883 169.69 24.955C170.273 24.7217 170.821 24.43 171.335 24.08L172.98 26.74C172.21 27.23 171.37 27.6267 170.46 27.93C169.573 28.21 168.698 28.35 167.835 28.35Z" fill="#1351B4"/>
<path d="M50.5643 28.35C48.861 28.35 47.4026 28.0233 46.1893 27.37C44.976 26.6933 44.0426 25.7717 43.3893 24.605C42.736 23.415 42.4093 22.0617 42.4093 20.545C42.4093 19.0983 42.771 17.7917 43.4943 16.625C44.241 15.435 45.2326 14.49 46.4693 13.79C47.7293 13.09 49.1176 12.74 50.6343 12.74C52.5943 12.74 54.216 13.3117 55.4993 14.455C56.806 15.5983 57.681 17.1967 58.1243 19.25L46.1893 23.38L45.3493 21.28L54.9043 17.85L54.1693 18.305C53.8893 17.5817 53.446 16.9517 52.8393 16.415C52.2326 15.855 51.4043 15.575 50.3543 15.575C49.5143 15.575 48.756 15.785 48.0793 16.205C47.426 16.6017 46.901 17.1617 46.5043 17.885C46.131 18.585 45.9443 19.4133 45.9443 20.37C45.9443 21.35 46.1426 22.2133 46.5393 22.96C46.9593 23.6833 47.5193 24.255 48.2193 24.675C48.9426 25.095 49.7476 25.305 50.6343 25.305C51.2643 25.305 51.8593 25.1883 52.4193 24.955C53.0026 24.7217 53.551 24.43 54.0643 24.08L55.7093 26.74C54.9393 27.23 54.0993 27.6267 53.1893 27.93C52.3026 28.21 51.4276 28.35 50.5643 28.35ZM65.3463 13.335L65.6613 16.695L65.5213 16.24C66.0113 15.19 66.7697 14.35 67.7963 13.72C68.823 13.0667 70.0363 12.74 71.4363 12.74C72.813 12.74 73.9447 13.1483 74.8313 13.965C75.7413 14.7817 76.208 15.8433 76.2313 17.15V28H72.6263V18.41C72.603 17.6633 72.3813 17.0567 71.9613 16.59C71.5413 16.1 70.888 15.8433 70.0013 15.82C69.208 15.82 68.4847 16.065 67.8313 16.555C67.178 17.0217 66.6647 17.6633 66.2913 18.48C65.918 19.2967 65.7313 20.2417 65.7313 21.315V28H62.1263V13.335H65.3463Z" fill="#168821"/>
<path d="M87.7305 28.35C86.3538 28.35 85.1171 28.035 84.0205 27.405C82.9238 26.7517 82.0605 25.83 81.4305 24.64C80.8005 23.45 80.4855 22.0617 80.4855 20.475C80.4855 18.8417 80.8238 17.4533 81.5005 16.31C82.1771 15.1433 83.0871 14.2567 84.2305 13.65C85.3971 13.02 86.7038 12.705 88.1505 12.705C89.2705 12.705 90.3321 12.9383 91.3355 13.405C92.3621 13.8483 93.1555 14.4783 93.7155 15.295L93.6105 16.52V0.805H97.1805V28H93.5755V24.535L93.9605 25.48C93.2371 26.2967 92.3505 26.985 91.3005 27.545C90.2505 28.0817 89.0605 28.35 87.7305 28.35ZM88.8505 25.305C89.6671 25.305 90.3905 25.165 91.0205 24.885C91.6505 24.605 92.1871 24.2083 92.6305 23.695C93.0738 23.1583 93.3888 22.54 93.5755 21.84V18.9C93.4121 18.2467 93.0971 17.675 92.6305 17.185C92.1871 16.6717 91.6388 16.275 90.9855 15.995C90.3321 15.715 89.6205 15.575 88.8505 15.575C87.9871 15.575 87.1938 15.785 86.4705 16.205C85.7705 16.6017 85.1988 17.1617 84.7555 17.885C84.3355 18.6083 84.1255 19.4483 84.1255 20.405C84.1255 21.315 84.3355 22.1433 84.7555 22.89C85.1988 23.6367 85.7821 24.2317 86.5055 24.675C87.2288 25.095 88.0105 25.305 88.8505 25.305ZM109.593 28.35C107.889 28.35 106.431 28.0233 105.218 27.37C104.004 26.6933 103.071 25.7717 102.418 24.605C101.764 23.415 101.438 22.0617 101.438 20.545C101.438 19.0983 101.799 17.7917 102.523 16.625C103.269 15.435 104.261 14.49 105.498 13.79C106.758 13.09 108.146 12.74 109.663 12.74C111.623 12.74 113.244 13.3117 114.528 14.455C115.834 15.5983 116.709 17.1967 117.153 19.25L105.218 23.38L104.378 21.28L113.933 17.85L113.198 18.305C112.918 17.5817 112.474 16.9517 111.868 16.415C111.261 15.855 110.433 15.575 109.383 15.575C108.543 15.575 107.784 15.785 107.108 16.205C106.454 16.6017 105.929 17.1617 105.533 17.885C105.159 18.585 104.973 19.4133 104.973 20.37C104.973 21.35 105.171 22.2133 105.568 22.96C105.988 23.6833 106.548 24.255 107.248 24.675C107.971 25.095 108.776 25.305 109.663 25.305C110.293 25.305 110.888 25.1883 111.448 24.955C112.031 24.7217 112.579 24.43 113.093 24.08L114.738 26.74C113.968 27.23 113.128 27.6267 112.218 27.93C111.331 28.21 110.456 28.35 109.593 28.35Z" fill="#FFCD07"/>
<path d="M120.28 18.795H126.79V21.945H120.28V18.795Z" fill="#333333"/>
</svg>
